<?xml version="1.0" encoding="utf-8"?>
<!-- Generator: Adobe Illustrator 24.1.2, SVG Export Plug-In . SVG Version: 6.00 Build 0)  -->
<svg version="1.1" id="Слой_1" xmlns="http://www.w3.org/2000/svg" xmlns:xlink="http://www.w3.org/1999/xlink" x="0px" y="0px"
	 viewBox="0 0 767.6 331.1" style="enable-background:new 0 0 767.6 331.1;" xml:space="preserve">
<style type="text/css">
	.st0{fill:#FFFFFF;}
	.st1{fill:#FFFFFF;stroke:#FFFFFF;stroke-width:0.75;stroke-miterlimit:10;}
</style>
<g>
	<g>
		<g>
			<g>
				<path class="st0" d="M445,242.8c-18.7,0-33.8-15.2-33.8-33.8s15.2-33.8,33.8-33.8c18.7,0,33.8,15.2,33.8,33.8l0,0
					C478.7,227.6,463.6,242.8,445,242.8z M445,228.8c11,0,19.8-8.9,19.8-19.8s-8.9-19.8-19.8-19.8c-11,0-19.8,8.9-19.8,19.8
					S434,228.8,445,228.8z M374.3,242.8c-18.7,0-33.8-15.2-33.8-33.8s15.2-33.8,33.8-33.8s33.8,15.2,33.8,33.8l0,0
					C408.1,227.6,392.9,242.8,374.3,242.8z M374.3,228.8c11,0,19.8-8.9,19.8-19.8s-8.9-19.8-19.8-19.8c-11,0-19.8,8.9-19.8,19.8
					S363.3,228.8,374.3,228.8z M337.4,208.6c0,18.9-15.2,34.2-33.8,34.2s-33.8-15.3-33.8-34.2s13.8-33.4,33.8-33.4
					c7.4,0,14.2,1.5,19.8,5.7v-19.6c0-3.8,3.3-6.8,7-6.8c3.7,0,7,3.1,7,6.8V208.6L337.4,208.6z M303.5,228.8
					c11,0,19.8-8.9,19.8-19.8s-8.9-19.8-19.8-19.8s-19.8,8.9-19.8,19.8S292.6,228.8,303.5,228.8z"/>
			</g>
		</g>
	</g>
</g>
<g>
	<g>
		<g>
			<g>
				<path class="st0" d="M232.8,242.8c-18.6,0-33.8-15.2-33.8-33.8s15.2-33.8,33.8-33.8s33.8,15.2,33.8,33.8l0,0
					C266.6,227.6,251.5,242.8,232.8,242.8z M232.8,228.8c11,0,19.8-8.9,19.8-19.8s-8.9-19.8-19.8-19.8c-10.9,0-19.8,8.8-19.8,19.8
					C213.1,220,221.9,228.8,232.8,228.8z"/>
			</g>
		</g>
	</g>
</g>
<g>
	<g>
		<g>
			<g>
				<g>
					<path class="st0" d="M614.9,184.9c6.6,6.6,9.9,14.6,9.9,24c0,9.3-3.3,17.4-9.9,24c-6.6,6.6-14.6,9.9-23.9,9.9
						s-17.3-3.3-23.9-9.9c-6.6-6.6-9.9-14.6-9.9-24c0-9.3,3.3-17.4,9.9-24c6.6-6.6,14.6-9.9,23.9-9.9S608.3,178.3,614.9,184.9z
						 M591,188.8c-5.5,0-10.3,2-14.2,5.9c-3.9,3.9-5.9,8.7-5.9,14.2c0,5.6,2,10.3,5.9,14.3c3.9,4,8.7,5.9,14.2,5.9s10.3-2,14.2-5.9
						c3.9-4,5.9-8.7,5.9-14.3c0-5.6-2-10.3-5.9-14.2C601.2,190.7,596.5,188.8,591,188.8z"/>
				</g>
			</g>
		</g>
	</g>
	<g>
		<g>
			<g>
				<g>
					<path class="st0" d="M685.2,184.9C685.2,185,685.3,185,685.2,184.9c1.4,1.4,2.1,3,2.1,4.9c0,1.8-0.7,3.5-2,4.8
						c-1.3,1.3-2.9,2-4.8,2c-1.9,0-3.5-0.7-4.8-2.1h-0.1c-3.9-3.9-8.6-5.8-14.1-5.8s-10.3,2-14.2,5.9c-3.9,3.9-5.9,8.7-5.9,14.2
						c0,5.6,2,10.3,5.9,14.3c3.9,4,8.7,5.9,14.2,5.9s10.2-1.9,14.1-5.8c0.1-0.1,0.1-0.1,0.1-0.1c1.3-1.3,2.9-2,4.8-2
						c1.8,0,3.5,0.7,4.9,2c1.3,1.3,2.1,2.9,2.1,4.9c0,1.9-0.7,3.5-2.1,4.9c-0.1,0.1-0.1,0.1-0.1,0.1c-6.5,6.5-14.5,9.9-23.8,9.9
						s-17.3-3.3-23.9-9.9c-6.6-6.6-9.9-14.6-9.9-24c0-9.3,3.3-17.4,9.9-24c6.6-6.6,14.6-9.9,23.9-9.9
						C670.9,175,678.8,178.3,685.2,184.9L685.2,184.9z"/>
				</g>
			</g>
		</g>
	</g>
	<g>
		<g>
			<g>
				<g>
					<path class="st0" d="M757.8,236.1c0,2.6-0.7,4.4-2.1,5.3c-1.3,0.9-2.9,1.3-4.9,1.3c-1.9,0-3.5-0.4-4.9-1.3
						c-1.4-0.9-2.1-2.6-2.1-5.1c-5.7,4.3-12.4,6.5-19.9,6.5c-9.3,0-17.3-3.3-23.9-9.9c-6.6-6.6-9.9-14.6-9.9-24
						c0-9.3,3.3-17.4,9.9-24c6.6-6.6,14.6-9.9,23.9-9.9s17.3,3.3,23.9,9.9c6.5,6.5,9.8,14.4,9.9,23.6L757.8,236.1L757.8,236.1z
						 M738.3,194.7c-3.9-4-8.7-5.9-14.2-5.9s-10.3,2-14.2,5.9c-3.9,3.9-5.9,8.7-5.9,14.2c0,5.6,2,10.3,5.9,14.3
						c3.9,4,8.6,5.9,14.2,5.9c5.5,0,10.3-2,14.2-5.9c3.3-3.4,5.2-7.3,5.7-11.8v-2.7c0-0.4,0-0.8,0.1-1.3
						C743.9,202.5,741.9,198.2,738.3,194.7z"/>
				</g>
			</g>
		</g>
	</g>
</g>
<g>
	<g>
		<g>
			<g>
				<path class="st0" d="M582.8,170.4c-0.3,0.4-1.1,0.1-1.5,0c-0.9-0.4-1.3-1.2-1.5-1.5c-1.3-2.1-4.8-3-7.4-2.9
					c-0.7,0-2.7,0.1-4.4,1.5c-0.8,0.7-1.3,1.4-2.2,2.9c-0.2,0.4-1,1.8-1.5,3.7c-0.2,0.9-0.1,1.2,0,1.5c0.4,0.8,1.8,0.8,2.9,0.7
					c3.9-0.2,7-1.3,7.4-1.5c1.1-0.4,4.3-1.7,6.6-2.2c0.1,0,1-0.2,2.2,0c0.6,0.1,1.3,0.2,1.5,0.7c0.1,0.5-0.3,1.1-0.7,1.5
					c-0.6,0.4-1.2,0.3-1.5,0.7c-0.1,0.2-0.1,0.5,0,0.7c0.3,0.4,1,0.2,1.5,0c0.3-0.1,0.4-0.4,0.7-0.7c0.4-0.5,0.7-1,0.7-1.5
					c0-0.4-0.1-0.6,0-0.7c0.1-0.1,0.5-0.1,0.7,0c0,0,0.9,0.2,2.2,0c1.3-0.2,1.5-1,2.2-0.7c0.2,0.1,0.4,0.3,0.7,0.7
					c0.9,1.1,0.8,1.5,1.5,2.2c0.5,0.5,1.3,0.9,1.5,0.7c0.1-0.1,0.1-0.5,0-0.7c-0.1-0.4-0.4-0.4-0.7-0.7c-0.6-0.6-1-1-1.5-1.5
					s-0.4-0.2-0.7-0.7c-0.1-0.2-0.1-0.5,0-0.7c0.2-0.2,0.7-0.1,1.5,0c2.4,0.4,2.6,0.4,2.9,0.7c0.1,0.1,0.4,0.6,0.7,1.5
					c0.4,0.9,0.4,1.1,0.7,1.5c0.1,0.1,0.8,0.9,1.5,0.7c0.3-0.1,0.7-0.3,0.7-0.7c0-0.4-0.4-0.7-0.7-0.7c-0.3,0-0.4,0-0.7,0
					c-0.7-0.1-1.1-0.9-1.5-1.5c-0.5-0.9-0.3-1.1-0.7-1.5c-0.6-0.6-1.4-0.4-1.5-0.7c0-0.1,0.2-0.2,0.7-0.7s0.5-0.7,0.7-0.7
					c0.5-0.1,1.1,0.4,1.5,0.7c0.4,0.4,1.5,0.7,3.7,1.5c2.2,0.7,4.3,0.7,5.1,1.5c0.7,0.7,0.7,0.7,0.7,0.7c0.4,0.5,0.6,0.7,0.7,0.7
					c0.4,0,0.7-0.7,0.7-1.5c0-0.7-0.2-1.2-0.7-2.2s-0.7-1-0.7-1.5c-0.1-1,0.6-2,0.7-2.2c0.3-0.4,0.5-0.7,0.7-0.7
					c1.8-0.7,6.8,5.9,8,8c0.1,0.2,0.4,0.7,0.7,0.7c0.3,0,0.7-0.8,0.7-1.5s-0.5-1.3-0.7-1.5c-4-4.2-5.4-5.4-8-8c-0.2-0.2-1-1-1.5-0.7
					c-0.2,0.1-0.2,0.3-0.7,1.5c-0.2,0.4-0.4,1-0.7,1.5c-0.4,0.7-0.7,0.7-0.7,0.7c-0.3,0-0.5-0.4-0.7-0.7c-1-1.5-4.5-1.5-5.1-1.5
					c-0.7,0-1.5,0-2.2,0.7c-0.5,0.5-0.7,1.3-1.5,1.5c-0.1,0.1-0.4,0.1-0.7,0c-0.4-0.2-0.4-0.7-0.7-1.5c-0.1-0.4-0.4-1.1-0.7-1.5
					c-0.7-0.9-2.1-0.8-2.9-0.7c-1.3,0.1-1.3,0.4-4.4,1.5c-1.5,0.5-2.3,0.7-2.9,1.5c-0.1,0.2-0.6,0.7-0.7,1.5
					C582.5,169.3,583.1,170,582.8,170.4z"/>
			</g>
		</g>
	</g>
</g>
<g>
	<g>
		<g>
			<path class="st0" d="M447.2,121.7c-2,1.6-4.7,2.9-8.3,3.9c-3.6,1-6.8,1.6-9.6,1.6c-10.9,0-19.5-2.8-25.8-8.3
				c-6.3-5.5-9.4-13.3-9.4-23.5V53.7h-11.8V35.6h11.7V14.7l23.5-4.2v25.1h16l0.2,18l-16.2,0.1v37.4c0,4.6,1.1,8.4,3.3,11.3
				c2.2,3,5.4,4.5,9.7,4.5c1.6,0,3.2-0.2,4.8-0.5c1.6-0.4,3.2-1,4.9-1.8L447.2,121.7z"/>
		</g>
		<g>
			<path class="st0" d="M536.3,49.4c3.8-4.3,8.8-7.6,15-10.1c6.3-2.5,11.8-3.7,16.8-3.7c12,0,20.6,3.5,25.6,10.5
				c5.1,7.1,7.6,15.6,7.6,25.8v55.2h-23.9V73.1c0-5.6-1.3-9.9-4-12.8s-6.6-4.5-11.6-4.5c-3.4,0-7,0.9-10.7,2.7s-7.2,3.9-10.3,6.2
				c0.1,1.2,0.2,2.4,0.4,3.7c0.1,1.2,0.2,2.4,0.2,3.7v55.2h-23.9V73.1c0-5.6-1.3-9.9-4-12.8s-6.5-4.5-11.4-4.5
				c-3.1,0-6.1,0.6-9.2,1.9c-3.1,1.3-6.1,2.9-8.9,4.8v64.7h-23.7V39l23.3-3v7c3-2,5-3,9.4-4.5c5.7-1.9,10.7-3,15.2-3
				c7,0,12.7,1.2,17.3,3.7C530.1,41.8,533.7,45.2,536.3,49.4z"/>
		</g>
		<g>
			<path class="st0" d="M634.8,0c3.8,0,7,1.3,9.6,3.8c2.6,2.6,3.9,5.7,3.9,9.5s-1.3,6.9-3.9,9.5c-2.6,2.6-5.8,3.8-9.6,3.8
				c-3.7,0-6.8-1.3-9.3-3.8c-2.6-2.6-3.8-5.7-3.8-9.5s1.3-6.9,3.8-9.5C628.1,1.3,631.2,0,634.8,0z M646.9,36l-0.2,91.1H623L622.9,36
				C622.9,36,646.9,36,646.9,36z"/>
		</g>
		<g>
			<path class="st0" d="M659.4,127.2l34.1-45.3l-32.8-45.8h25.8l21,29.9l21.9-29.9h26.6l-34.5,45.8l31.6,45.3H727l-20.5-28.4
				l-20.9,28.4H659.4z"/>
		</g>
		<g>
			<path class="st0" d="M198.4,81.5c0-26.6,19.5-45.5,46.7-45.5c18,0,29,7.8,34.8,15.6l-15.1,14c-4.2-6.1-10.5-9.4-18.6-9.4
				c-14,0-23.9,10.1-23.9,25.2s9.9,25.4,23.9,25.4c8.1,0,14.4-3.6,18.6-9.4l15.1,13.8c-5.9,8.1-16.7,15.8-34.8,15.8
				C217.9,127.2,198.4,108.3,198.4,81.5z"/>
		</g>
		<g>
			<path class="st0" d="M289.4,81.5c0-25.2,18.8-45.5,45.6-45.5c26.3,0,44.1,19.4,44.1,47.8v5.1h-65.5c1.5,10.9,10.4,20.1,25.3,20.1
				c7.5,0,17.8-3.2,23.5-8.7l10.3,14.7c-8.8,7.9-22.6,12-36.2,12C309.6,127.2,289.4,109.4,289.4,81.5z M334.8,54.2
				c-14.4,0-20.6,10.6-21.7,19.2h43.4C356,65.2,350.2,54.2,334.8,54.2z"/>
		</g>
	</g>
	<g>
		<g>
			<path class="st0" d="M92.3,91.5c0.6,0.3,0.7,1,0.2,1.5c-3.1,2.8-6.6,5.2-10.3,7.1c-6.6,3.2-13.7,4.8-20.9,4.7
				c-7.2-0.3-14.2-2.2-20.3-5.7c-6.1-3.5-11.2-8.5-14.9-14.3s-5.8-12.5-6.4-19.3c-0.4-6.8,0.8-13.6,3.5-19.7c1.4-3,3.1-5.9,5.2-8.5
				c2.1-2.6,4.5-4.9,7.1-7c5.2-4,11.3-6.7,17.7-7.8C46.9,24,41,27.1,36.4,31.4c-2.4,2.1-4.5,4.5-6.2,7.1c-1.8,2.6-3.1,5.5-4.3,8.4
				C23.8,52.7,23.2,58.9,24,65c0.9,6.1,3.3,11.7,6.8,16.6c3.6,4.8,8.3,8.7,13.6,11.2c5.3,2.5,11.1,3.6,16.9,3.4
				c5.8-0.3,11.3-2,16.2-4.9c1.9-1.2,3.7-2.5,5.4-4c0.3-0.2,0.7-0.3,1-0.1L92.3,91.5z"/>
		</g>
		<g>
			<path class="st0" d="M110.3,107.7c0.4,0.4,0.3,1.1-0.1,1.5c-0.2,0.2-0.4,0.4-0.6,0.6c-2.6,2.3-5.4,4.5-8.3,6.4s-6,3.6-9.2,5
				c-3.2,1.4-6.5,2.6-9.8,3.5c-13.3,3.7-27.7,2.9-40.4-1.9c-12.7-4.8-23.8-13.5-31.3-24.7C3.2,86.8-0.4,73.5,0,60.3
				c0.5-13.1,5.2-26,13.1-36.1C21.2,14,32.3,6.5,44.5,3C56.8-0.6,70-0.2,81.8,4c5.9,2.1,11.4,5.1,16.3,8.9c5,3.7,9.3,8.3,12.7,13.2
				c-3.8-4.8-8.3-9.1-13.3-12.4S87,7.7,81.1,6C69.6,2.6,57.1,3.1,45.8,7S24.9,18.4,18.3,28c-6.7,9.6-10.2,21.1-9.9,32.4
				c0.2,11.3,4.1,22.5,10.8,31.5c6.7,8.9,16.2,15.5,26.7,18.8s21.9,3.1,32-0.3c8.2-2.7,15.4-7.5,21.2-13.5c0.4-0.4,1.1-0.5,1.5-0.1
				c0.6,0.6,1.3,1.3,1.8,2C102.6,98.6,108.3,105.4,110.3,107.7z"/>
		</g>
		<g>
			<path class="st0" d="M149.8,41l-35.6,43.5l2,4.1l4.1,8.6c0.7,1.5,0.4,3.3-0.8,4.5l-2.9,2.7c-0.2,0.2-0.4,0.2-0.7,0.2
				c-0.1,0-0.2-0.1-0.3-0.2c0,0-0.1,0-0.1-0.1l-7.9-9.4c-0.8-0.9-1.6-1.8-2.5-2.6c-0.7-0.6-1.3-1.2-2.1-1.8c-1.4-1.1-3-2.2-4.6-3
				c-0.2-0.2-0.5-0.3-0.8-0.4l-9.1-4.8l-1.7-0.9c-0.4-0.2-0.5-0.6-0.3-1l2-3.4c0.9-1.5,2.6-2.2,4.2-1.8l13.7,3.1l13.9-18L91.8,47.8
				c-0.4-0.2-0.5-0.7-0.3-1l4.5-5.6c1.8-2.3,4.8-3.4,7.7-3l30.2,5.1l7.5-9.6c1.7-2.2,3.9-3.9,6.4-5l3.5-1.5c0.5-0.2,1-0.2,1.4-0.1
				c0.3,0.1,0.5,0.2,0.7,0.3l0,0c0.5,0.4,0.9,1.2,0.7,2l-0.6,3.7C152.9,36,151.7,38.7,149.8,41z"/>
		</g>
		<g>
			<g>
				<path class="st0" d="M155.2,85.4l-4.5,5.6c-0.2,0.2-0.5,0.3-0.7,0.2c-0.1,0-0.3-0.1-0.4-0.2l-17.2-23.3l13.3-16.1l10.5,25.7
					C157.5,79.9,157,83,155.2,85.4z"/>
			</g>
		</g>
	</g>
</g>
<g>
	<path class="st1" d="M577,281.9c-1.2,0.6-3.6,1.2-6.8,1.2c-7.2,0-12.7-4.6-12.7-13c0-8,5.4-13.5,13.4-13.5c3.2,0,5.2,0.7,6.1,1.1
		l-0.8,2.7c-1.3-0.6-3-1.1-5.2-1.1c-6,0-10,3.8-10,10.6c0,6.3,3.6,10.3,9.8,10.3c2,0,4.1-0.4,5.4-1.1L577,281.9z"/>
	<path class="st1" d="M598.7,273.4c0,6.8-4.7,9.8-9.2,9.8c-5,0-8.8-3.6-8.8-9.5c0-6.2,4-9.8,9.1-9.8
		C595.1,263.9,598.7,267.7,598.7,273.4z M584.1,273.6c0,4,2.3,7.1,5.6,7.1c3.2,0,5.6-3,5.6-7.1c0-3.1-1.6-7.1-5.5-7.1
		S584.1,270.1,584.1,273.6z"/>
	<path class="st1" d="M604.4,269.3c0-1.9,0-3.5-0.2-5h3l0.2,3h0.1c0.9-1.7,3-3.5,6.1-3.5c2.5,0,6.5,1.5,6.5,7.8v11h-3.3v-10.6
		c0-3-1.1-5.4-4.3-5.4c-2.2,0-3.9,1.6-4.5,3.4c-0.2,0.4-0.2,1-0.2,1.6v11.1h-3.3V269.3z"/>
	<path class="st1" d="M630.8,259v5.3h4.8v2.5h-4.8v9.9c0,2.3,0.6,3.6,2.5,3.6c0.9,0,1.5-0.1,1.9-0.2l0.2,2.5c-0.6,0.3-1.7,0.5-3,0.5
		c-1.6,0-2.8-0.5-3.6-1.4c-1-1-1.3-2.6-1.3-4.8v-10h-2.8v-2.5h2.8v-4.4L630.8,259z"/>
	<path class="st1" d="M640.8,270.1c0-2.2,0-4-0.2-5.7h2.9l0.1,3.6h0.2c0.8-2.5,2.8-4,5.1-4c0.4,0,0.6,0,1,0.1v3.2
		c-0.3-0.1-0.7-0.1-1.1-0.1c-2.4,0-4,1.8-4.5,4.3c-0.1,0.5-0.2,1-0.2,1.6v9.8h-3.3V270.1z"/>
	<path class="st1" d="M658.5,259.2c0,1.1-0.8,2.1-2.1,2.1c-1.2,0-2-0.9-2-2.1c0-1.2,0.9-2.1,2.1-2.1
		C657.7,257.1,658.5,258,658.5,259.2z M654.8,282.7v-18.4h3.3v18.4H654.8z"/>
	<path class="st1" d="M665,282.7c0.1-1.3,0.2-3.1,0.2-4.7v-22.2h3.3v11.5h0.1c1.2-2.1,3.3-3.4,6.3-3.4c4.6,0,7.8,3.8,7.8,9.4
		c0,6.6-4.1,9.8-8.2,9.8c-2.7,0-4.8-1-6.2-3.5H668l-0.2,3H665z M668.4,275.3c0,0.4,0.1,0.8,0.2,1.2c0.6,2.3,2.6,3.9,5,3.9
		c3.5,0,5.6-2.8,5.6-7.1c0-3.7-1.9-6.8-5.5-6.8c-2.3,0-4.4,1.6-5.1,4.1c-0.1,0.4-0.2,0.8-0.2,1.4V275.3z"/>
	<path class="st1" d="M703.6,277.7c0,1.9,0,3.6,0.2,5h-3l-0.2-3h-0.1c-0.9,1.5-2.8,3.4-6.1,3.4c-2.9,0-6.3-1.6-6.3-8.1v-10.8h3.3
		v10.2c0,3.5,1.1,5.9,4.1,5.9c2.2,0,3.8-1.6,4.4-3c0.2-0.5,0.3-1.1,0.3-1.7v-11.3h3.3V277.7z"/>
	<path class="st1" d="M714.6,259v5.3h4.8v2.5h-4.8v9.9c0,2.3,0.6,3.6,2.5,3.6c0.9,0,1.5-0.1,1.9-0.2l0.2,2.5c-0.6,0.3-1.7,0.5-3,0.5
		c-1.6,0-2.8-0.5-3.6-1.4c-1-1-1.3-2.6-1.3-4.8v-10h-2.8v-2.5h2.8v-4.4L714.6,259z"/>
	<path class="st1" d="M741,273.4c0,6.8-4.7,9.8-9.2,9.8c-5,0-8.8-3.6-8.8-9.5c0-6.2,4-9.8,9.1-9.8C737.4,263.9,741,267.7,741,273.4z
		 M726.4,273.6c0,4,2.3,7.1,5.6,7.1c3.2,0,5.6-3,5.6-7.1c0-3.1-1.6-7.1-5.5-7.1S726.4,270.1,726.4,273.6z"/>
	<path class="st1" d="M746.7,270.1c0-2.2,0-4-0.2-5.7h2.9l0.1,3.6h0.2c0.8-2.5,2.8-4,5.1-4c0.4,0,0.6,0,1,0.1v3.2
		c-0.3-0.1-0.7-0.1-1.1-0.1c-2.4,0-4,1.8-4.5,4.3c-0.1,0.5-0.2,1-0.2,1.6v9.8h-3.3V270.1z"/>
</g>
<g>
	<path class="st1" d="M620.3,317.2c1.5,0.9,3.6,1.7,5.9,1.7c3.4,0,5.4-1.8,5.4-4.4c0-2.4-1.4-3.8-4.8-5.1c-4.2-1.5-6.8-3.6-6.8-7.3
		c0-4,3.3-7,8.3-7c2.6,0,4.5,0.6,5.7,1.3l-0.9,2.7c-0.8-0.5-2.5-1.2-4.9-1.2c-3.5,0-4.8,2.1-4.8,3.8c0,2.4,1.6,3.6,5.1,4.9
		c4.3,1.7,6.5,3.8,6.5,7.5c0,4-2.9,7.4-9,7.4c-2.5,0-5.2-0.7-6.5-1.6L620.3,317.2z"/>
	<path class="st1" d="M640.8,308.8c0-2.4-0.1-4.3-0.2-6h3l0.2,3.2h0.1c1.4-2.2,3.5-3.6,6.5-3.6c4.4,0,7.8,3.8,7.8,9.3
		c0,6.6-4,9.9-8.4,9.9c-2.4,0-4.6-1.1-5.7-2.9h-0.1v10h-3.3V308.8z M644.1,313.7c0,0.5,0.1,1,0.2,1.4c0.6,2.3,2.6,3.9,5,3.9
		c3.5,0,5.6-2.9,5.6-7.1c0-3.7-1.9-6.8-5.5-6.8c-2.3,0-4.4,1.6-5.1,4.1c-0.1,0.4-0.2,0.9-0.2,1.4V313.7z"/>
	<path class="st1" d="M680.5,311.9c0,6.8-4.7,9.8-9.2,9.8c-5,0-8.8-3.6-8.8-9.5c0-6.2,4-9.8,9.1-9.8
		C676.9,302.4,680.5,306.2,680.5,311.9z M665.9,312.1c0,4,2.3,7.1,5.6,7.1c3.2,0,5.6-3,5.6-7.1c0-3.1-1.6-7.1-5.5-7.1
		S665.9,308.6,665.9,312.1z"/>
	<path class="st1" d="M686.1,307.8c0-1.9,0-3.5-0.2-5h3l0.2,3h0.1c0.9-1.7,3-3.5,6.1-3.5c2.5,0,6.5,1.5,6.5,7.8v11h-3.3v-10.6
		c0-3-1.1-5.4-4.3-5.4c-2.2,0-3.9,1.6-4.5,3.4c-0.2,0.4-0.2,1-0.2,1.6v11.1h-3.3V307.8z"/>
	<path class="st1" d="M708.2,317.8c1,0.6,2.7,1.3,4.4,1.3c2.4,0,3.6-1.2,3.6-2.7c0-1.6-1-2.5-3.4-3.4c-3.3-1.2-4.9-3-4.9-5.2
		c0-3,2.4-5.4,6.3-5.4c1.9,0,3.5,0.5,4.5,1.1L718,306c-0.7-0.5-2.1-1.1-3.8-1.1c-2,0-3.1,1.1-3.1,2.5c0,1.5,1.1,2.2,3.5,3.1
		c3.2,1.2,4.8,2.8,4.8,5.5c0,3.2-2.5,5.5-6.9,5.5c-2,0-3.9-0.5-5.2-1.3L708.2,317.8z"/>
	<path class="st1" d="M741.8,311.9c0,6.8-4.7,9.8-9.2,9.8c-5,0-8.8-3.6-8.8-9.5c0-6.2,4-9.8,9.1-9.8
		C738.2,302.4,741.8,306.2,741.8,311.9z M727.2,312.1c0,4,2.3,7.1,5.6,7.1c3.2,0,5.6-3,5.6-7.1c0-3.1-1.6-7.1-5.5-7.1
		S727.2,308.6,727.2,312.1z"/>
	<path class="st1" d="M747.5,308.6c0-2.2,0-4-0.2-5.7h2.9l0.1,3.6h0.2c0.8-2.5,2.8-4,5.1-4c0.4,0,0.6,0,1,0.1v3.2
		c-0.3-0.1-0.7-0.1-1.1-0.1c-2.4,0-4,1.8-4.5,4.3c-0.1,0.5-0.2,1-0.2,1.6v9.8h-3.3V308.6z"/>
</g>
<g>
	<path class="st1" d="M356.6,257.4c1.6-0.3,3.7-0.5,6.3-0.5c3.3,0,5.7,0.8,7.2,2.1c1.4,1.2,2.2,3.1,2.2,5.4c0,2.3-0.7,4.1-2,5.5
		c-1.7,1.9-4.6,2.8-7.8,2.8c-1,0-1.9,0-2.7-0.2v10.3h-3.3V257.4z M359.9,269.8c0.7,0.2,1.6,0.3,2.7,0.3c4,0,6.4-1.9,6.4-5.5
		c0-3.4-2.4-5-6-5c-1.4,0-2.5,0.1-3.1,0.3V269.8z"/>
	<path class="st1" d="M387.4,282.7l-0.3-2.3H387c-1,1.4-3,2.7-5.6,2.7c-3.7,0-5.6-2.6-5.6-5.3c0-4.4,4-6.9,11.1-6.8v-0.4
		c0-1.5-0.4-4.3-4.2-4.3c-1.7,0-3.5,0.5-4.8,1.4l-0.8-2.2c1.5-1,3.7-1.6,6-1.6c5.6,0,7,3.8,7,7.5v6.9c0,1.6,0.1,3.2,0.3,4.4H387.4z
		 M386.9,273.3c-3.6-0.1-7.8,0.6-7.8,4.1c0,2.2,1.4,3.2,3.2,3.2c2.4,0,3.9-1.5,4.4-3.1c0.1-0.3,0.2-0.7,0.2-1.1V273.3z"/>
	<path class="st1" d="M396.9,270.1c0-2.2,0-4-0.2-5.7h2.9l0.1,3.6h0.2c0.8-2.5,2.8-4,5.1-4c0.4,0,0.6,0,1,0.1v3.2
		c-0.3-0.1-0.7-0.1-1.1-0.1c-2.4,0-4,1.8-4.5,4.3c-0.1,0.5-0.2,1-0.2,1.6v9.8h-3.3V270.1z"/>
	<path class="st1" d="M415.8,259v5.3h4.8v2.5h-4.8v9.9c0,2.3,0.6,3.6,2.5,3.6c0.9,0,1.5-0.1,1.9-0.2l0.2,2.5c-0.6,0.3-1.7,0.5-3,0.5
		c-1.6,0-2.8-0.5-3.6-1.4c-1-1-1.3-2.6-1.3-4.8v-10h-2.8v-2.5h2.8v-4.4L415.8,259z"/>
	<path class="st1" d="M425.7,269.3c0-1.9,0-3.5-0.2-5h3l0.2,3h0.1c0.9-1.7,3-3.5,6.1-3.5c2.5,0,6.5,1.5,6.5,7.8v11h-3.3v-10.6
		c0-3-1.1-5.4-4.3-5.4c-2.2,0-3.9,1.6-4.5,3.4c-0.2,0.4-0.2,1-0.2,1.6v11.1h-3.3V269.3z"/>
	<path class="st1" d="M450.1,274.1c0.1,4.5,3,6.4,6.3,6.4c2.4,0,3.8-0.4,5.1-0.9l0.6,2.4c-1.2,0.5-3.2,1.1-6.1,1.1
		c-5.7,0-9-3.7-9-9.3s3.3-9.9,8.6-9.9c6,0,7.6,5.3,7.6,8.7c0,0.7-0.1,1.2-0.1,1.6H450.1z M459.9,271.7c0-2.1-0.9-5.4-4.6-5.4
		c-3.4,0-4.9,3.1-5.1,5.4H459.9z"/>
	<path class="st1" d="M468.8,270.1c0-2.2,0-4-0.2-5.7h2.9l0.1,3.6h0.2c0.8-2.5,2.8-4,5.1-4c0.4,0,0.6,0,1,0.1v3.2
		c-0.3-0.1-0.7-0.1-1.1-0.1c-2.4,0-4,1.8-4.5,4.3c-0.1,0.5-0.2,1-0.2,1.6v9.8h-3.3V270.1z"/>
</g>
</svg>
